<?xml version="1.0" encoding="UTF-8"?>
<svg id="Layer_1" data-name="Layer 1" xmlns="http://www.w3.org/2000/svg" viewBox="0 0 428.19 664">
  <defs>
    <style>
      .cls-1 {
        fill: #00a784;
      }

      .cls-1, .cls-2 {
        stroke-width: 0px;
      }

      .cls-2 {
        fill: #653855;
      }
    </style>
  </defs>
  <path class="cls-2" d="M102.45,482.08c13.33,59.5,65.35,87.95,105.62,87.93,69.85-.04,115.89-41.86,125.84-59.56,11.21-19.95-1.99-30.48-34.26-21.27-38.27,10.92-65.27,17.66-81.74,9.38-42.16-21.18-42.16-42.36-74.69-48.67-35.31-6.86-46.41,6.99-40.76,32.2Z"/>
  <g>
    <path class="cls-1" d="M242.63,407.34c5.78-.85,17.45-2.31,23.24-3.07,3.65-.03,7.11.71,10.39,2.27,14.36,6.93,13.2,26.76,2.98,36.72-7.75,7.71-20.53,10.91-31.67,9.62-11.3-1.32-21.22-7.21-29.19-14.49-8.67-7.58-13.24-18.72-14.25-29.51-.71-7.08-.64-14.05,1.09-20.91,6.24-24.11,24.39-45.35,49.39-54.53,17.62-6.08,37.02-6.48,55.25-3.33,54.69,9.91,95.21,50.51,103.81,101.79,7.77,48.34-11.94,97.06-42.88,135.04-20.1,23.87-47.63,41.67-77.26,53.64-48.38,19.62-106.14,22.68-154.46.57-60.93-28.26-102.58-82.99-102.46-147.67.07-37.32,12.15-76.14,35.4-106.57,11.74-15.55,28.03-29.37,44.14-39.76,9.38-6.27,20.23-12.09,28.59-18.38,1.63-1.26,3.39-2.7,4.75-4.22,11.72-13.32,11.03-50.22,8.06-51.53-2.98-1.34-8.97-1.08-11.69-2.86-7.32-4.63-8.72-12.73-6.49-20.59,1.45-5.09,7.21-10.91,17.34-10.94,4.11-.01,4.32-7.75,4.27-9.41-.43-10.18-.36-25.35-1.28-27.43-.92-2.08-1.97-5.99-23.31-.75-5.27,1.29-15.64,4.2-19.31,3.79-9.67-1.12-14.27-11.41-14-19.36-.04-8.25,5.22-16.77,15.39-15.81,33.92,4.12,68.04,8.63,102.18,8.25,33.53-.05,67.71-4.03,101.15-7.53,10.38-1.35,15.72,6.38,15.72,15.14.22,11.68-11.87,19.21-22.2,16.77-10.33-2.44-21.98-3.14-27.73-3.01-2.54.07-6.27.12-6.89,4.37-1.21,8.27-1.38,17.31-1.84,25.54-.07,1.7-1.01,9.32,2.73,9.44,5.96.2,11.86,2.61,14.62,6.09,5.3,7.54,2.96,17.5-4.65,22.65-5.25,3.57-15.11,5.69-16.74,8.96-1.63,3.28-3.54,31.53,4.43,40.88,14.04,16.45,2.87,20.6-1.19,17.84-10.61-7.2-11.41-59.48-8.51-64.82,1.53-2.82,22.47-20.23,14.81-19.97-16.99.59-18.82-7.96-20.85-13.43-3.28-8.87-5.98-19.72-5.74-32.82.15-8.2-87.04-14.32-86.29-6.52.01.17-3.79,14.58,4.18,48.89,1.94,8.35-1.89,11.28-5.96,11.34-4.08-.09-15.61-12.09-18.02-6.16-2.07,5.1-1.32,15.51,9.69,15.51,5.46,0,9.82,2.36,12.57,9.82,2.79,7.58,10.25,49.15-7.19,70.22-8.47,10.23-17.46,17.85-26.27,26.68-11.31,11.08-21.26,22.87-28.48,36.45-6.44,11.88-10.76,24.74-13.4,37.82-8.18,38.61-1.97,77.84,25.76,107.35,11.02,11.9,25.02,22.29,39.91,30.07,1.7.79,4.41,2.17,6.17,2.84,45.37,18.91,100.85,5.32,139.09-22.19,6.45-4.76,12.2-9.89,17.35-15.71,13.99-16.29,25.35-35.06,31.52-55.04,3.11-10,4.89-20.35,4.83-30.74,0,0,.02-1.69.02-1.69-.04-.85-.27-4.03-.31-4.97-.41-4.31-1.17-8.91-2.32-13.11-7.01-28-30.45-50.22-59.82-58.38-12.73-3.53-28.86-4.93-40.94-.03-12.59,5.15-23.23,16.44-28.18,28.42-2.48,6.21-2.9,13.05-2.24,19.4.56,4.1,2.07,7.53,4.73,10.8,4.22,5.21,10.07,10.26,16.59,11.99,4.49,1.29,9.21,1.13,13.89,0,6.82-1.44,11.59-7.21,12.61-13.62,1.56-7.59-3.57-13.26-11.4-14.8-4.78-.27-17.7-.98-23.23-1.34h0Z"/>
    <polygon class="cls-1" points="262.59 149.59 176.3 149.59 139.51 18.53 299.38 18.53 262.59 149.59"/>
  </g>
</svg>